<svg id="Capa_1" data-name="Capa 1" xmlns="http://www.w3.org/2000/svg" viewBox="0 0 128 128"><defs><style>.cls-1{font-size:10.56px;fill:#085128;font-family:Montserrat;font-weight:700;}.cls-2{fill:none;stroke:#085128;stroke-linecap:round;stroke-linejoin:round;stroke-width:3px;}</style></defs><title>ICONOS TOTEM</title><text class="cls-1" transform="translate(34.22 109.82)">DESCUBRE</text><text class="cls-1" transform="translate(19.61 120.5)">BUCARAMANGA</text><path class="cls-2" d="M67.88,91.72H55.13V81.52A9.17,9.17,0,0,0,46,72.35H42.13V25.1h14.5V59.35"/><line class="cls-2" x1="42.13" y1="66.29" x2="35" y2="66.29"/><line class="cls-2" x1="42.13" y1="58.72" x2="35" y2="58.72"/><line class="cls-2" x1="42.13" y1="51.15" x2="35" y2="51.15"/><line class="cls-2" x1="42.13" y1="43.58" x2="35" y2="43.58"/><line class="cls-2" x1="42.13" y1="36.01" x2="35" y2="36.01"/><line class="cls-2" x1="42.13" y1="28.44" x2="35" y2="28.44"/><path class="cls-2" d="M60.12,91.72H72.87V81.52A9.17,9.17,0,0,1,82,72.35h3.83V25.1H71.37V59.35"/><line class="cls-2" x1="85.87" y1="66.29" x2="93" y2="66.29"/><line class="cls-2" x1="85.87" y1="58.72" x2="93" y2="58.72"/><line class="cls-2" x1="85.87" y1="51.15" x2="93" y2="51.15"/><line class="cls-2" x1="85.87" y1="43.58" x2="93" y2="43.58"/><line class="cls-2" x1="85.87" y1="36.01" x2="93" y2="36.01"/><line class="cls-2" x1="85.87" y1="28.44" x2="93" y2="28.44"/><circle class="cls-2" cx="63.59" cy="70.63" r="5.34"/></svg>